<?xml version="1.0" encoding="iso-8859-1"?>
<!-- Generator: Adobe Illustrator 19.0.0, SVG Export Plug-In . SVG Version: 6.00 Build 0)  -->
<svg version="1.1" id="Capa_1" xmlns="http://www.w3.org/2000/svg" xmlns:xlink="http://www.w3.org/1999/xlink" x="0px" y="0px"
	 viewBox="0 0 512 512" style="enable-background:new 0 0 512 512;" xml:space="preserve">
<g>
	<g>
		<path d="M340.252,165.104c-0.632-0.61-1.727-1.332-3.33-1.268c-2.363,0.084-4.359,2.376-4.359,5.004v58.28
			c0,13.736-11.174,24.91-24.91,24.91H204.86c-13.736,0-24.91-11.174-24.91-24.91v-59.152c0-2.628-1.996-4.919-4.359-5.003
			c-1.595-0.07-2.698,0.657-3.33,1.268c-0.519,0.5-1.389,1.59-1.389,3.267v175.926c0,2.628,1.997,4.92,4.36,5.004
			c1.609,0.057,2.697-0.658,3.329-1.268c0.519-0.5,1.389-1.591,1.389-3.268v-57.876c0-13.736,11.174-24.91,24.91-24.91h102.792
			c13.736,0,24.91,11.174,24.91,24.91v58.28c0,2.628,1.996,4.919,4.359,5.003c1.597,0.069,2.698-0.657,3.33-1.268
			c0.519-0.5,1.389-1.591,1.389-3.268V168.372C341.641,166.695,340.771,165.605,340.252,165.104z"/>
	</g>
</g>
<g>
	<g>
		<path d="M255.194,80.474c-96.785,0-175.525,78.74-175.525,175.525s78.74,175.525,175.525,175.525S430.72,352.784,430.72,256
			S351.979,80.474,255.194,80.474z M361.086,369.621c-6.5,6.272-14.967,9.685-23.96,9.685c-0.422,0-0.846-0.008-1.27-0.022
			c-18.67-0.664-33.294-16.032-33.294-34.986v-53.189h-92.61v52.785c0,9.458-3.749,18.286-10.556,24.855
			c-6.805,6.567-15.775,9.984-25.23,9.663c-18.67-0.665-33.294-16.033-33.294-34.986V167.5c0-9.458,3.749-18.286,10.556-24.855
			c6.805-6.567,15.776-9.992,25.23-9.663c18.669,0.664,33.293,16.032,33.293,34.986v54.061h92.61V168.84
			c0-18.954,14.625-34.321,33.293-34.986h0.001c9.457-0.324,18.425,3.096,25.23,9.663c6.807,6.569,10.556,15.397,10.556,24.855
			v176.394h0.001C371.642,354.225,367.893,363.052,361.086,369.621z"/>
	</g>
</g>
<g>
	<g>
		<path d="M437.019,74.981C388.667,26.628,324.379,0,256,0S123.333,26.628,74.981,74.981S0,187.62,0,256
			s26.628,132.667,74.981,181.019C123.334,485.371,187.621,512,256,512s132.667-26.628,181.018-74.981
			C485.371,388.667,512,324.38,512,255.999S485.371,123.333,437.019,74.981z M255.194,461.526
			c-113.328,0-205.526-92.199-205.526-205.526S141.867,50.473,255.194,50.473S460.721,142.672,460.721,256
			S368.522,461.526,255.194,461.526z"/>
	</g>
</g>
<g>
</g>
<g>
</g>
<g>
</g>
<g>
</g>
<g>
</g>
<g>
</g>
<g>
</g>
<g>
</g>
<g>
</g>
<g>
</g>
<g>
</g>
<g>
</g>
<g>
</g>
<g>
</g>
<g>
</g>
</svg>
