<svg height="511pt" viewBox="-14 0 511 511.99951" width="511pt" xmlns="http://www.w3.org/2000/svg"><path d="m484.289062 465.007812v36.953126c0 5.539062-4.496093 10.039062-10.039062 10.039062h-463.710938c-5.542968 0-10.039062-4.5-10.039062-10.039062v-36.953126c0-19.148437 15.53125-34.675781 34.675781-34.675781h414.4375c19.144531 0 34.675781 15.53125 34.675781 34.675781zm0 0" fill="#cdebfc"/><path d="m484.289062 465.007812v36.953126c0 5.542968-4.492187 10.039062-10.039062 10.039062h-231.855469v-81.667969h207.21875c19.152344 0 34.675781 15.523438 34.675781 34.675781zm0 0" fill="#a3d4ff"/><path d="m445.527344 430.332031-203.132813 81.667969-203.132812-81.667969 203.132812-83.949219.089844-.039062zm0 0" fill="#005fe4"/><path d="m445.527344 430.332031-203.132813 81.667969v-165.617188l.089844-.039062zm0 0" fill="#0050c3"/><path d="m318.683594 395.542969-22.800782 34.789062-53.488281 81.667969-53.488281-81.667969-22.800781-34.789062zm0 0" fill="#ffa78f"/><path d="m318.683594 395.542969-22.800782 34.789062-53.488281 81.667969v-116.457031zm0 0" fill="#f89580"/><path d="m397.851562 90.371094-17.617187 35.390625-135.210937 23.402343-2.628907-.164062-137.839843-8.148438-17.617188-85.414062 155.457031 4.667969c4.046875.113281-11.410156-2.738281 155.457031 30.265625zm0 0" fill="#005fe4"/><path d="m397.851562 90.371094-17.617187 35.390625-135.210937 23.402343-2.628907-.164062v-88.894531c4.046875.113281-11.410156-2.738281 155.457031 30.265625zm0 0" fill="#0050c3"/><path d="m450.46875 247.019531c0 26.671875-21.628906 48.320313-48.320312 48.320313h-308.074219c-26.6875 0-48.320313-21.644532-48.320313-48.320313 0-26.679687 21.632813-48.320312 48.320313-48.320312h308.074219c26.691406 0 48.320312 21.632812 48.320312 48.320312zm0 0" fill="#ffa78f"/><path d="m450.46875 247.019531c0 26.671875-21.628906 48.320313-48.320312 48.320313h-159.753907v-96.640625h159.753907c26.691406 0 48.320312 21.632812 48.320312 48.320312zm0 0" fill="#f89580"/><path d="m380.230469 125.761719-.992188 42.675781-1.738281 124.617188c-5.355469 74.851562-68.011719 131.277343-135.09375 131.277343h-.011719c-67.082031-.011719-129.738281-56.40625-135.105469-131.277343l-1.738281-109.523438-.992187-42.679688 137.835937-7.539062zm0 0" fill="#ffcebf"/><path d="m380.230469 125.761719-.992188 42.675781-1.738281 124.617188c-5.355469 74.851562-68.011719 131.277343-135.09375 131.277343h-.011719v-291.019531zm0 0" fill="#ffb99c"/><path d="m380.234375 125.761719-.996094 42.675781-136.84375 7.550781-136.84375 7.539063-.996093-42.675782 137.839843-7.542968zm0 0" fill="#6aa9ff"/><path d="m380.234375 125.761719-.996094 42.675781-136.84375 7.550781v-42.679687zm0 0" fill="#0095ff"/><path d="m397.851562 90.371094-155.457031-17.464844-155.457031-17.46875 93.996094-44.703125c19.445312-9.25 40.789062-12.46875 61.460937-9.859375 16.707031 2.105469 32.96875 8.03125 47.457031 17.667969zm0 0" fill="#cdebfc"/><path d="m397.851562 90.371094-155.457031-17.464844v-72.03125c16.707031 2.105469 32.96875 8.03125 47.457031 17.667969zm0 0" fill="#a3d4ff"/><path d="m195.710938 253.847656v-10.476562c0-8.835938-7.164063-16-16-16-8.835938 0-16 7.164062-16 16v10.476562c0 8.839844 7.164062 16.003906 16 16.003906 8.835937 0 16-7.164062 16-16.003906zm0 0" fill="#0095ff"/><path d="m305.078125 227.371094c-8.835937 0-16 7.164062-16 16v10.476562c0 8.839844 7.164063 16.003906 16 16.003906s16-7.164062 16-16.003906v-10.476562c0-8.835938-7.164063-16-16-16zm0 0" fill="#005fe4"/><path d="m258.394531 253.84375v30.433594c0 8.832031-7.167969 16-16 16s-16-7.167969-16-16v-30.433594c0-8.832031 7.167969-16 16-16s16 7.167969 16 16zm0 0" fill="#ffa78f"/><path d="m258.394531 253.84375v30.433594c0 8.832031-7.167969 16-16 16v-62.433594c8.832031 0 16 7.167969 16 16zm0 0" fill="#f89580"/><path d="m464.714844 97.820312c-.992188 8.851563-9.019532 15.113282-17.679688 14.105469l-204.640625-22.988281-208.214843-23.402344c-8.773438-.984375-15.097657-8.90625-14.101563-17.6875.980469-8.777344 8.902344-15.101562 17.675781-14.117187l204.640625 23 208.214844 23.402343c8.773437.984376 15.097656 8.90625 14.105469 17.6875zm0 0" fill="#6aa9ff"/><path d="m464.714844 97.820312c-.992188 8.851563-9.019532 15.113282-17.679688 14.105469l-204.640625-22.988281v-32.207031l208.214844 23.402343c8.773437.984376 15.097656 8.90625 14.105469 17.6875zm0 0" fill="#0095ff"/><path d="m300.1875 340.222656c-16.171875 13.535156-36.707031 20.992188-57.792969 20.992188-21.085937 0-41.609375-7.457032-57.792969-20.980469-6.773437-5.675781-7.679687-15.765625-2.003906-22.539063 5.664063-6.785156 15.753906-7.679687 22.539063-2.015624 10.429687 8.734374 23.667969 13.535156 37.257812 13.535156 13.601563 0 26.828125-4.800782 37.257813-13.535156 6.773437-5.664063 16.875-4.769532 22.539062 2.003906 5.675782 6.785156 4.78125 16.875-2.003906 22.539062zm0 0" fill="#ffa78f"/><path d="m300.1875 340.222656c-16.171875 13.535156-36.707031 20.992188-57.792969 20.992188v-32c13.601563 0 26.828125-4.800782 37.257813-13.535156 6.773437-5.664063 16.875-4.769532 22.539062 2.003906 5.675782 6.785156 4.78125 16.875-2.003906 22.539062zm0 0" fill="#f89580"/></svg>